<svg xmlns="http://www.w3.org/2000/svg" xmlns:xlink="http://www.w3.org/1999/xlink" viewBox="1 1 18 18" width="18" height="18"><defs><circle id="d" cy="96" cx="96" r="88"/><linearGradient xlink:href="#a" id="f" gradientUnits="userSpaceOnUse" x1="29.337" y1="75.021" x2="81.837" y2="44.354"/><linearGradient xlink:href="#b" id="g" gradientUnits="userSpaceOnUse" x1="110.87" y1="164.5" x2="52.538" y2="130.33"/><linearGradient xlink:href="#c" id="j" gradientUnits="userSpaceOnUse" x1="121.86" y1="49.804" x2="136.55" y2="114.13"/><linearGradient xlink:href="#c" id="k" gradientUnits="userSpaceOnUse" x1="121.86" y1="49.804" x2="136.55" y2="114.13"/><linearGradient xlink:href="#a" id="n" gradientUnits="userSpaceOnUse" x1="29.337" y1="75.021" x2="81.837" y2="44.354"/><linearGradient xlink:href="#b" id="r" gradientUnits="userSpaceOnUse" x1="110.87" y1="164.5" x2="52.538" y2="130.33"/></defs><clipPath id="e"><use width="100%" overflow="visible" xlink:href="#d" height="100%"/></clipPath><radialGradient id="o" gradientUnits="userSpaceOnUse" cy="55.948" cx="668.18" gradientTransform="translate(-576)" r="84.078"><stop stop-color="#3E2723" stop-opacity=".2" offset="0"/><stop stop-color="#3E2723" stop-opacity="0" offset="1"/></radialGradient><radialGradient id="s" gradientUnits="userSpaceOnUse" cy="48.52" cx="597.88" gradientTransform="translate(-576)" r="78.044"><stop stop-color="#3E2723" stop-opacity=".2" offset="0"/><stop stop-color="#3E2723" stop-opacity="0" offset="1"/></radialGradient><radialGradient id="t" gradientUnits="userSpaceOnUse" cy="96.138" cx="671.84" gradientTransform="translate(-576)" r="87.87"><stop stop-color="#263238" stop-opacity=".2" offset="0"/><stop stop-color="#263238" stop-opacity="0" offset="1"/></radialGradient><radialGradient id="u" gradientUnits="userSpaceOnUse" cy="32.014" cx="34.286" gradientTransform="translate(-7 -7)" r="176.75"><stop stop-color="#fff" stop-opacity=".1" offset="0"/><stop stop-color="#fff" stop-opacity="0" offset="1"/></radialGradient><g transform="translate(.898 .898) scale(.10227)"><g clip-path="url(#e)" transform="translate(-7 -7)"><path d="M21.97 8v108h39.39L96 56h88V8z" fill="#db4437"/><linearGradient x1="29.337" x2="81.837" y1="75.021" gradientUnits="userSpaceOnUse" y2="44.354" id="a"><stop offset="0" stop-opacity=".6" stop-color="#A52714"/><stop offset=".66" stop-opacity="0" stop-color="#A52714"/></linearGradient><path d="M21.97 8v108h39.39L96 56h88V8z" fill="url(#f)"/></g><path transform="translate(-7 -7)" d="M62.31 115.65L22.48 47.34l-.58 1 39.54 67.8z" clip-path="url(#e)" fill="#3e2723" fill-opacity=".15"/><g clip-path="url(#e)" transform="translate(-7 -7)"><path d="M8 184h83.77l38.88-38.88V116H61.36L8 24.48z" fill="#0f9d58"/><linearGradient x1="110.87" x2="52.538" y1="164.5" gradientUnits="userSpaceOnUse" y2="130.33" id="b"><stop offset="0" stop-opacity=".4" stop-color="#055524"/><stop offset=".33" stop-opacity="0" stop-color="#055524"/></linearGradient><path d="M8 184h83.77l38.88-38.88V116H61.36L8 24.48z" fill="url(#g)"/></g><path transform="translate(-7 -7)" d="M129.84 117.33l-.83-.48L90.62 184h1.15l38.1-66.64z" clip-path="url(#e)" fill="#263238" fill-opacity=".15"/><g clip-path="url(#e)" transform="translate(-7 -7)"><defs><path d="M8 184h83.77l38.88-38.88V116H61.36L8 24.48z" id="h"/></defs><clipPath id="i"><use height="100%" xlink:href="#h" overflow="visible" width="100%"/></clipPath><g clip-path="url(#i)"><path d="M96 56l34.65 60-38.88 68H184V56z" fill="#ffcd40"/><linearGradient x1="121.86" x2="136.55" y1="49.804" gradientUnits="userSpaceOnUse" y2="114.13" id="c"><stop offset="0" stop-opacity=".3" stop-color="#EA6100"/><stop offset=".66" stop-opacity="0" stop-color="#EA6100"/></linearGradient><path d="M96 56l34.65 60-38.88 68H184V56z" fill="url(#j)"/></g></g><g clip-path="url(#e)" transform="translate(-7 -7)"><path d="M96 56l34.65 60-38.88 68H184V56z" fill="#ffcd40"/><path d="M96 56l34.65 60-38.88 68H184V56z" fill="url(#k)"/></g><g clip-path="url(#e)" transform="translate(-7 -7)"><defs><path d="M96 56l34.65 60-38.88 68H184V56z" id="l"/></defs><clipPath id="m"><use height="100%" xlink:href="#l" overflow="visible" width="100%"/></clipPath><g clip-path="url(#m)"><path d="M21.97 8v108h39.39L96 56h88V8z" fill="#db4437"/><path d="M21.97 8v108h39.39L96 56h88V8z" fill="url(#n)"/></g></g><path transform="translate(-7 -7)" d="M96 56v20.95L174.4 56z" clip-path="url(#e)" fill="url(#o)"/><g clip-path="url(#e)" transform="translate(-7 -7)"><defs><path d="M21.97 8v40.34L61.36 116 96 56h88V8z" id="p"/></defs><clipPath id="q"><use height="100%" xlink:href="#p" overflow="visible" width="100%"/></clipPath><g clip-path="url(#q)"><path d="M8 184h83.77l38.88-38.88V116H61.36L8 24.48z" fill="#0f9d58"/><path d="M8 184h83.77l38.88-38.88V116H61.36L8 24.48z" fill="url(#r)"/></g></g><path transform="translate(-7 -7)" d="M21.97 48.45l57.25 57.24L61.36 116z" clip-path="url(#e)" fill="url(#s)"/><path transform="translate(-7 -7)" d="M91.83 183.89l20.96-78.2L130.65 116z" clip-path="url(#e)" fill="url(#t)"/><g clip-path="url(#e)" transform="translate(-7 -7)"><circle r="40" cx="96" cy="96" fill="#f1f1f1"/><circle r="32" cx="96" cy="96" fill="#4285f4"/></g><g clip-path="url(#e)" transform="translate(-7 -7)"><path d="M96 55c-22.09 0-40 17.91-40 40v1c0-22.09 17.91-40 40-40h88v-1z" fill="#3e2723" fill-opacity=".2"/><path d="M130.6 116c-6.92 11.94-19.81 20-34.6 20-14.8 0-27.69-8.06-34.61-20h-.04L8 24.48v1L61.36 117h.04c6.92 11.94 19.81 20 34.61 20 14.79 0 27.68-8.05 34.6-20h.05v-1z" fill="#fff" fill-opacity=".1"/><path d="M97 56c-.17 0-.33.02-.5.03C118.36 56.3 136 74.08 136 96c0 21.92-17.64 39.7-39.5 39.97.17 0 .33.03.5.03 22.09 0 40-17.91 40-40s-17.91-40-40-40z" opacity=".1" fill="#3e2723"/><path d="M131 117.33c3.4-5.88 5.37-12.68 5.37-19.96 0-4.22-.66-8.28-1.87-12.09.95 3.42 1.5 7.01 1.5 10.73 0 7.28-1.97 14.08-5.37 19.96l.02.04-38.88 68h1.16l38.09-66.64z" fill="#fff" fill-opacity=".2"/></g><g clip-path="url(#e)" transform="translate(-7 -7)"><path d="M96 9c48.43 0 87.72 39.13 87.99 87.5 0-.17.01-.33.01-.5 0-48.6-39.4-88-88-88S8 47.4 8 96c0 .17.01.33.01.5C8.28 48.13 47.57 9 96 9z" fill="#fff" fill-opacity=".2"/><path d="M96 183c48.43 0 87.72-39.13 87.99-87.5 0 .17.01.33.01.5 0 48.6-39.4 88-88 88S8 144.6 8 96c0-.17.01-.33.01-.5C8.28 143.87 47.57 183 96 183z" fill="#3e2723" fill-opacity=".15"/></g><circle r="88" cx="89" cy="89" fill="url(#u)"/></g></svg>