<?xml version="1.0" encoding="UTF-8" standalone="no"?>
<svg width="32px" height="32px" viewBox="0 0 32 32" version="1.1" xmlns="http://www.w3.org/2000/svg" xmlns:xlink="http://www.w3.org/1999/xlink">
    <!-- Generator: Sketch 39.1 (31720) - http://www.bohemiancoding.com/sketch -->
    <title>http@1x</title>
    <desc>Created with Sketch.</desc>
    <defs></defs>
    <g id="Page" stroke="none" stroke-width="1" fill="none" fill-rule="evenodd">
        <g id="Non-Touch-Summary-Icons" transform="translate(-160.000000, -192.000000)">
            <g id="Icon" transform="translate(160.000000, 192.000000)">
                <polygon id="Layout" points="0 0 32 0 32 32 0 32"></polygon>
                <path d="M16.5,3 C9.048,3 3,9.048 3,16.5 C3,23.952 9.048,30 16.5,30 C23.952,30 30,23.952 30,16.5 C30,9.048 23.952,3 16.5,3 L16.5,3 Z M6,16.5 C6,10.711875 10.711875,6 16.5,6 C22.288125,6 27,10.711875 27,16.5 C27,22.288125 22.288125,27 16.5,27 C10.711875,27 6,22.288125 6,16.5 Z M15,23 L18,23 L18,15 L15,15 L15,23 L15,23 Z M15,13 L18,13 L18,10 L15,10 L15,13 L15,13 Z" fill="#FFFFFF" transform="translate(16.500000, 16.500000) scale(1, -1) translate(-16.500000, -16.500000) "></path>
            </g>
        </g>
    </g>
</svg>