<svg height="32" viewBox="0 0 32 32" width="32" xmlns="http://www.w3.org/2000/svg"><g fill="none" fill-rule="evenodd" transform=""><path d="m0 0h32v32h-32z"/><path d="m21 12.9999998v-2c0-2.76000957-2.2399902-4.9999998-5-4.9999998-2.7600098.02034414-5 2.23999023-5 4.9999998v2s.1000061.0000002-1 0c-1.1000061-.0000001-2 .9003068-2 1.9926758v10.0073244c0 1.1000061.90002441 2 2 2h12c1.0999756 0 2-.8999939 2-2s0-8.8999939 0-10c0-1.0554579-.8999939-2-2-2.0000002-1.1000061.0000002-1 0-1 0zm-8 .0202284v-2.0202282c0-1.66000366 1.3399963-3 3-3s3 1.33999634 3 3v2.0202282z" fill="#fff"/></g></svg>